<svg width="840" height="159" viewBox="0 0 840 159" fill="none" xmlns="http://www.w3.org/2000/svg">
<path d="M133 118.5C138.3 124.5 142.7 129.7 145.8 133.3L111.3 156.2L81.0996 106.2C72.0996 122.7 61.3996 139.9 49.5996 158.1L15.5996 131.7C26.5996 119.5 37.7996 108.1 49.5996 96.8999C54.2996 92.4999 57.2996 89.5999 58.3996 88.3999C54.6996 87.6999 43.8996 85.3999 25.9996 80.8999C13.1996 77.5999 4.69961 75.3999 0.599609 73.8999L14.2996 34C33.9996 42 51.4996 51 66.7996 60.5C63.2996 35.8 61.4996 15.8998 61.4996 0.299805H101C101 11.2998 98.9996 31.4998 94.9996 60.7998C97.9996 59.4998 104.5 56.7 114.3 52C127.8 45.9 140.3 40.6998 151.8 36.2998L163.8 77.2998C146.9 80.9998 127.6 84.5998 105.6 88.2998L133 118.5Z" fill="#6DF547"/>
<path d="M72 119.169V117.544L78.4632 115.919V46.5808L72 44.9557V43.3306H102.7V44.9557L96.2369 46.5808V80.1664H119.397V46.5808L112.933 44.9557V43.3306H143.634V44.9557L137.17 46.5808V115.919L143.634 117.544V119.169H112.933V117.544L119.397 115.919V82.875H96.2369V115.919L102.7 117.544V119.169H72Z" fill="white"/>
<path d="M181.836 120.794C172.931 120.794 165.93 118.266 160.831 113.21C155.804 108.082 153.29 101.04 153.29 92.0839C153.29 83.1278 155.804 76.1217 160.831 71.0658C165.93 65.9377 172.931 63.3736 181.836 63.3736C190.741 63.3736 197.707 65.9377 202.734 71.0658C207.833 76.1217 210.382 83.1278 210.382 92.0839C210.382 101.04 207.833 108.082 202.734 113.21C197.707 118.266 190.741 120.794 181.836 120.794ZM181.836 118.627C184.709 118.627 187.114 116.605 189.053 112.56C191.064 108.516 192.07 101.69 192.07 92.0839C192.07 82.4777 191.064 75.6522 189.053 71.6075C187.114 67.5628 184.709 65.5404 181.836 65.5404C178.964 65.5404 176.522 67.5628 174.511 71.6075C172.572 75.6522 171.603 82.4777 171.603 92.0839C171.603 101.69 172.572 108.516 174.511 112.56C176.522 116.605 178.964 118.627 181.836 118.627Z" fill="white"/>
<path d="M219.037 117.544L225.501 115.919V68.249L219.037 66.6238V64.9987H228.732C232.969 64.9987 236.308 66.371 238.75 69.1157C239.684 70.1991 240.474 71.5353 241.12 73.1243C242.125 71.2464 243.31 69.6213 244.675 68.249C247.906 64.9987 251.928 63.3736 256.739 63.3736C260.761 63.3736 264.351 64.2403 267.511 65.9738C270.743 67.635 273.256 69.838 275.052 72.5826C276.847 75.3272 277.745 78.2163 277.745 81.2499V115.919L284.208 117.544V119.169H270.204C263.741 119.169 260.509 115.919 260.509 109.418V81.2499C260.509 76.6995 259.684 73.2326 258.032 70.8491C256.452 68.3934 254.585 67.1656 252.43 67.1656C249.702 67.1656 247.26 68.6101 245.106 71.4992C244.172 72.727 243.382 74.1716 242.736 75.8328V115.919L249.199 117.544V119.169H219.037V117.544Z" fill="white"/>
<path d="M319.76 120.794C310.567 120.794 303.422 118.266 298.323 113.21C293.225 108.082 290.675 101.04 290.675 92.0839C290.675 86.2335 291.788 81.1415 294.015 76.8079C296.241 72.4742 299.329 69.1518 303.278 66.8405C307.3 64.5293 311.896 63.3736 317.067 63.3736C322.237 63.3736 326.761 64.3487 330.639 66.2988C334.589 68.249 337.605 70.8852 339.688 74.2077C341.842 77.4579 342.919 81.0693 342.919 85.0418C342.919 86.8475 342.74 88.4003 342.381 89.7004L341.842 91.5422C338.754 92.1923 335.415 92.734 331.824 93.1673C324.284 94.2508 316.672 94.7925 308.988 94.7925C308.988 103.171 310.137 109.166 312.435 112.777C314.733 116.316 317.892 118.086 321.914 118.086C324.715 118.086 327.3 117.436 329.67 116.136C332.111 114.763 334.014 112.994 335.379 110.827C336.815 108.588 337.533 106.313 337.533 104.001H340.226C340.226 106.891 339.365 109.635 337.641 112.235C335.917 114.836 333.512 116.93 330.424 118.519C327.336 120.036 323.781 120.794 319.76 120.794ZM308.988 92.0839C313.584 92.0839 317.318 91.9034 320.19 91.5422C321.411 91.47 322.704 91.2894 324.068 91.0005C324.14 90.6394 324.32 89.8449 324.607 88.617C324.966 86.8114 325.145 84.8973 325.145 82.875C325.145 76.8801 324.356 72.5104 322.776 69.7657C321.196 66.9489 319.293 65.5404 317.067 65.5404C311.681 65.5404 308.988 74.3883 308.988 92.0839Z" fill="white"/>
<path d="M376.266 120.794C371.814 120.794 367.828 119.819 364.309 117.869C362.586 116.93 361.185 115.919 360.108 114.836C358.959 116.425 357.702 117.652 356.338 118.519C355.692 118.952 354.973 119.35 354.184 119.711H351.491V101.293H355.799C356.733 104.326 358.097 107.143 359.893 109.743C363.699 115.305 368.438 118.086 374.112 118.086C377.128 118.086 379.39 117.363 380.898 115.919C382.478 114.402 383.268 112.235 383.268 109.418C383.268 107.035 382.191 105.049 380.036 103.46C377.954 101.799 374.65 99.7761 370.126 97.3926C366.248 95.4425 363.088 93.7091 360.647 92.1923C358.277 90.6033 356.23 88.6531 354.507 86.3419C352.855 83.9584 352.029 81.1776 352.029 77.9996C352.029 73.666 353.86 70.163 357.523 67.4906C361.257 64.7459 366.966 63.3736 374.65 63.3736C378.456 63.3736 381.975 64.3848 385.207 66.4072C386.787 67.3461 388.151 68.3212 389.3 69.3324C390.234 68.0323 391.49 66.8044 393.07 65.6488C394.291 64.9265 395.009 64.5293 395.225 64.457H397.918V82.875H393.609C392.532 79.7692 391.203 76.9884 389.623 74.5327C386.033 68.899 381.76 66.0821 376.805 66.0821C374.866 66.0821 373.214 66.8044 371.85 68.249C370.485 69.6935 369.803 71.4992 369.803 73.666C369.803 76.4106 370.952 78.7219 373.25 80.5998C375.548 82.4055 379.031 84.5001 383.699 86.8836C387.505 88.8337 390.521 90.5672 392.747 92.0839C395.045 93.5285 396.984 95.3342 398.564 97.501C400.216 99.6678 401.042 102.196 401.042 105.085C401.042 115.558 392.783 120.794 376.266 120.794Z" fill="white"/>
<path d="M437.132 120.794C432.392 120.794 428.263 119.928 424.744 118.194C421.297 116.461 418.64 114.077 416.773 111.044C414.906 108.01 413.972 104.579 413.972 100.751V67.7073H406.432V64.9987H413.972V59.5817C413.972 53.0812 417.204 49.831 423.667 49.831H431.207V64.9987H446.288V67.7073H431.207V100.751C431.207 107.396 431.89 111.946 433.254 114.402C434.618 116.858 436.629 118.086 439.286 118.086C441.872 118.086 444.134 116.822 446.073 114.294C448.012 111.766 448.981 108.335 448.981 104.001H451.674C451.674 109.346 450.346 113.499 447.688 116.461C445.031 119.35 441.513 120.794 437.132 120.794Z" fill="white"/>
<path d="M491.581 137.4L497.996 135.8V67.5333L491.581 65.9333V64.3333H501.203C505.409 64.3333 508.723 65.6845 511.147 68.3867C512.074 69.4533 512.858 70.7689 513.499 72.3333C514.426 70.4844 515.602 68.8844 517.028 67.5333C520.235 64.3333 524.227 62.7333 529.003 62.7333C533.208 62.7333 536.95 63.8356 540.229 66.04C543.508 68.1733 546.11 71.3733 548.034 75.64C549.959 79.8356 550.921 84.9556 550.921 91C550.921 100.102 548.783 107.107 544.506 112.013C540.301 116.849 534.598 119.267 527.399 119.267C523.977 119.267 520.984 118.556 518.418 117.133C517.348 116.636 516.243 115.924 515.103 115V135.8L521.518 137.4V139H491.581V137.4ZM523.122 116.067C526.187 116.067 528.539 114.289 530.179 110.733C531.889 107.178 532.745 100.6 532.745 91C532.745 81.8267 531.961 75.4622 530.393 71.9067C528.896 68.28 527.007 66.4667 524.726 66.4667C522.017 66.4667 519.594 67.8889 517.455 70.7333C516.529 71.9422 515.745 73.3644 515.103 75V111.8C516.101 112.796 516.885 113.507 517.455 113.933C519.38 115.356 521.269 116.067 523.122 116.067Z" fill="white"/>
<path d="M588.343 119.267C579.219 119.267 572.127 116.778 567.066 111.8C562.005 106.751 559.475 99.8178 559.475 91C559.475 85.24 560.58 80.2267 562.789 75.96C564.999 71.6933 568.064 68.4222 571.985 66.1467C575.976 63.8711 580.538 62.7333 585.67 62.7333C590.802 62.7333 595.293 63.6933 599.142 65.6133C603.063 67.5333 606.056 70.1289 608.124 73.4C610.262 76.6 611.331 80.1556 611.331 84.0667C611.331 85.8444 611.153 87.3733 610.797 88.6533L610.262 90.4667C607.197 91.1067 603.882 91.64 600.318 92.0667C592.834 93.1333 585.278 93.6667 577.651 93.6667C577.651 101.916 578.792 107.818 581.073 111.373C583.354 114.858 586.49 116.6 590.482 116.6C593.262 116.6 595.828 115.96 598.18 114.68C600.603 113.329 602.492 111.587 603.847 109.453C605.272 107.249 605.985 105.009 605.985 102.733H608.658C608.658 105.578 607.803 108.28 606.092 110.84C604.381 113.4 601.993 115.462 598.928 117.027C595.863 118.52 592.335 119.267 588.343 119.267ZM577.651 91C582.213 91 585.92 90.8222 588.771 90.4667C589.983 90.3956 591.266 90.2178 592.62 89.9333C592.691 89.5778 592.87 88.7956 593.155 87.5867C593.511 85.8089 593.689 83.9244 593.689 81.9333C593.689 76.0311 592.905 71.7289 591.337 69.0267C589.769 66.2533 587.88 64.8667 585.67 64.8667C580.324 64.8667 577.651 73.5778 577.651 91Z" fill="white"/>
<path d="M647.638 119.267C638.799 119.267 631.849 116.778 626.789 111.8C621.799 106.751 619.304 99.8178 619.304 91C619.304 82.1822 621.799 75.2844 626.789 70.3067C631.849 65.2578 638.799 62.7333 647.638 62.7333C656.477 62.7333 663.391 65.2578 668.381 70.3067C673.441 75.2844 675.972 82.1822 675.972 91C675.972 99.8178 673.441 106.751 668.381 111.8C663.391 116.778 656.477 119.267 647.638 119.267ZM647.638 117.133C650.489 117.133 652.877 115.142 654.802 111.16C656.798 107.178 657.795 100.458 657.795 91C657.795 81.5422 656.798 74.8222 654.802 70.84C652.877 66.8578 650.489 64.8667 647.638 64.8667C644.787 64.8667 642.363 66.8578 640.367 70.84C638.443 74.8222 637.481 81.5422 637.481 91C637.481 100.458 638.443 107.178 640.367 111.16C642.363 115.142 644.787 117.133 647.638 117.133Z" fill="white"/>
<path d="M683.494 137.4L689.909 135.8V67.5333L683.494 65.9333V64.3333H693.117C697.322 64.3333 700.637 65.6845 703.06 68.3867C703.987 69.4533 704.771 70.7689 705.412 72.3333C706.339 70.4844 707.515 68.8844 708.941 67.5333C712.148 64.3333 716.14 62.7333 720.916 62.7333C725.121 62.7333 728.864 63.8356 732.143 66.04C735.421 68.1733 738.023 71.3733 739.948 75.64C741.872 79.8356 742.835 84.9556 742.835 91C742.835 100.102 740.696 107.107 736.419 112.013C732.214 116.849 726.511 119.267 719.312 119.267C715.891 119.267 712.897 118.556 710.331 117.133C709.262 116.636 708.157 115.924 707.016 115V135.8L713.432 137.4V139H683.494V137.4ZM715.035 116.067C718.1 116.067 720.453 114.289 722.092 110.733C723.803 107.178 724.658 100.6 724.658 91C724.658 81.8267 723.874 75.4622 722.306 71.9067C720.809 68.28 718.92 66.4667 716.639 66.4667C713.93 66.4667 711.507 67.8889 709.369 70.7333C708.442 71.9422 707.658 73.3644 707.016 75V111.8C708.014 112.796 708.798 113.507 709.369 113.933C711.293 115.356 713.182 116.067 715.035 116.067Z" fill="white"/>
<path d="M751.388 116.067L757.803 114.467V46.2L751.388 44.6V43H765.288C771.703 43 774.911 46.2 774.911 52.6V114.467L781.326 116.067V117.667H751.388V116.067Z" fill="white"/>
<path d="M816.593 119.267C807.469 119.267 800.377 116.778 795.316 111.8C790.255 106.751 787.724 99.8178 787.724 91C787.724 85.24 788.829 80.2267 791.039 75.96C793.249 71.6933 796.314 68.4222 800.234 66.1467C804.226 63.8711 808.788 62.7333 813.92 62.7333C819.052 62.7333 823.543 63.6933 827.392 65.6133C831.312 67.5333 834.306 70.1289 836.373 73.4C838.511 76.6 839.581 80.1556 839.581 84.0667C839.581 85.8444 839.402 87.3733 839.046 88.6533L838.511 90.4667C835.446 91.1067 832.132 91.64 828.568 92.0667C821.083 93.1333 813.528 93.6667 805.901 93.6667C805.901 101.916 807.041 107.818 809.322 111.373C811.603 114.858 814.739 116.6 818.731 116.6C821.511 116.6 824.077 115.96 826.429 114.68C828.853 113.329 830.742 111.587 832.096 109.453C833.522 107.249 834.235 105.009 834.235 102.733H836.908C836.908 105.578 836.052 108.28 834.341 110.84C832.631 113.4 830.243 115.462 827.178 117.027C824.113 118.52 820.584 119.267 816.593 119.267ZM805.901 91C810.463 91 814.169 90.8222 817.02 90.4667C818.232 90.3956 819.515 90.2178 820.87 89.9333C820.941 89.5778 821.119 88.7956 821.404 87.5867C821.761 85.8089 821.939 83.9244 821.939 81.9333C821.939 76.0311 821.155 71.7289 819.587 69.0267C818.018 66.2533 816.129 64.8667 813.92 64.8667C808.574 64.8667 805.901 73.5778 805.901 91Z" fill="white"/>
</svg>
