<svg width="139" height="24" viewBox="0 0 139 24" fill="none" xmlns="http://www.w3.org/2000/svg">
<path d="M20.1369 17.9772C20.943 18.8898 21.6122 19.6806 22.0836 20.2281L16.8365 23.711L12.2433 16.1065C10.8745 18.616 9.24715 21.2319 7.45247 24L2.28137 19.9848C3.95437 18.1293 5.65779 16.3954 7.45247 14.692C8.1673 14.0228 8.62357 13.5818 8.79087 13.3993C8.22814 13.2928 6.58555 12.943 3.86312 12.2586C1.91635 11.7567 0.623574 11.4221 0 11.1939L2.08365 5.1255C5.07985 6.34223 7.74144 7.71105 10.0684 9.15592C9.53612 5.39927 9.26236 2.37262 9.26236 0H15.27C15.27 1.673 14.9658 4.74525 14.3574 9.20152C14.8137 9.0038 15.8023 8.57797 17.2928 7.86314C19.346 6.93539 21.2471 6.14448 22.9962 5.47528L24.8213 11.711C22.2509 12.2738 19.3156 12.8213 15.9696 13.384L20.1369 17.9772Z" fill="white"/>
<path d="M34.3422 18.0834L35.2244 17.8553V13.9466C35.0419 14.0378 34.8746 14.1139 34.7073 14.1747C34.2814 14.3268 33.8099 14.4028 33.308 14.4028C32.0913 14.4028 31.2092 14.1747 30.6312 13.7184C30.0533 13.2622 29.7643 12.6386 29.7643 11.8173V8.42565L28.8822 8.19751V7.96938H33.0951V8.19751L32.213 8.42565V11.8173C32.213 12.6082 32.3499 13.1861 32.6236 13.5207C32.8974 13.8553 33.3232 14.0226 33.9012 14.0226C34.2358 14.0226 34.5552 13.9466 34.8442 13.7945C34.9962 13.7184 35.1179 13.6576 35.2244 13.5663V8.39524L34.3422 8.1671V7.93896H38.5552V8.1671L37.673 8.39524V17.8401L38.5552 18.0682V18.2964H34.3422V18.0834Z" fill="white"/>
<path d="M40.9125 17.4908C40.2129 16.7911 39.8631 15.833 39.8631 14.6163C39.8631 13.8254 40.0152 13.1258 40.3194 12.5326C40.6236 11.9395 41.0494 11.4832 41.597 11.179C42.1445 10.8596 42.7681 10.7075 43.4829 10.7075C44.1977 10.7075 44.8061 10.8444 45.3536 11.1029C45.8859 11.3615 46.2966 11.7265 46.6008 12.1676C46.8897 12.6086 47.0418 13.1105 47.0418 13.6581C47.0418 13.9014 47.0114 14.1143 46.9658 14.2968L46.8897 14.5402C46.4639 14.6315 46.0076 14.7075 45.5209 14.7683C44.4867 14.9204 43.4373 14.9965 42.3878 14.9965C42.3878 16.1372 42.5399 16.9585 42.8593 17.4452C43.1787 17.9319 43.6046 18.1752 44.1521 18.1752C44.5323 18.1752 44.8973 18.084 45.2167 17.9014C45.5513 17.7189 45.8099 17.4756 45.9924 17.1714C46.1901 16.8672 46.2814 16.563 46.2814 16.2436H46.6464C46.6464 16.6391 46.5247 17.0041 46.2966 17.3691C46.0532 17.7189 45.7338 18.0079 45.308 18.2208C44.8821 18.4337 44.3954 18.5402 43.8479 18.5402C42.6008 18.525 41.6122 18.1904 40.9125 17.4908ZM43.9087 14.5402C44.076 14.525 44.2586 14.5098 44.4411 14.4642C44.4563 14.4185 44.4715 14.3121 44.5171 14.1448C44.5627 13.9014 44.5932 13.6429 44.5932 13.3691C44.5932 12.5478 44.4867 11.9547 44.2738 11.5744C44.0608 11.1942 43.8023 11.0117 43.4981 11.0117C42.7528 11.0117 42.3878 12.2132 42.3878 14.6315C43.0114 14.6163 43.5133 14.601 43.9087 14.5402Z" fill="white"/>
<path d="M49.1863 17.4908C48.4867 16.7911 48.1369 15.833 48.1369 14.6163C48.1369 13.3995 48.4867 12.4414 49.1863 11.7417C49.8859 11.0421 50.8593 10.7075 52.1217 10.7075C53.0342 10.7075 53.7034 10.8596 54.1597 11.179C54.616 11.4984 54.8441 11.8786 54.8441 12.3349C54.8441 12.6695 54.7376 12.9433 54.5399 13.141C54.3422 13.3387 54.0684 13.4452 53.7338 13.4452C53.5969 13.4452 53.4601 13.43 53.3232 13.4148L53.1407 13.3691V11.1486L52.9277 11.0725C52.7756 11.0269 52.6083 10.9965 52.3954 10.9965C51.8327 10.9965 51.4068 11.255 51.0874 11.7873C50.7833 12.3197 50.616 13.2626 50.616 14.601C50.616 15.909 50.768 16.8216 51.0874 17.3539C51.3916 17.8862 51.8327 18.1448 52.3954 18.1448C52.7756 18.1448 53.1407 18.0535 53.4601 17.871C53.7947 17.6885 54.0532 17.4452 54.2357 17.141C54.4334 16.8368 54.5247 16.5326 54.5247 16.2132H54.8897C54.8897 16.6087 54.768 16.9737 54.5399 17.3387C54.2966 17.6885 53.9772 17.9775 53.5513 18.1904C53.1255 18.4033 52.6388 18.5098 52.0912 18.5098C50.8593 18.525 49.8859 18.1904 49.1863 17.4908Z" fill="white"/>
<path d="M57.3537 18.0834L58.2358 17.8553V11.285H57.1255C57.1255 11.8325 56.9582 12.38 56.6388 12.9275C56.5172 13.1404 56.3498 13.323 56.1673 13.5055H55.7263V10.9199H63.1027V13.5055H62.6616C62.4791 13.3382 62.3118 13.1404 62.1749 12.9275C61.8555 12.3952 61.7035 11.8477 61.7035 11.285H60.5932V17.8553L61.4753 18.0834V18.3116H57.3384V18.0834H57.3537Z" fill="white"/>
<path d="M64.0761 18.312V18.0838L64.9582 17.8709V11.3766L64.0761 11.1485V10.9355H68.213V11.1485L67.3156 11.3766V14.4032H69.5362V11.3766L68.654 11.1485V10.9355H72.7757V11.1485L71.8936 11.3766V17.8709L72.7757 18.0838V18.312H68.654V18.0838L69.5362 17.8709V14.7682H67.3156V17.8709L68.213 18.0838V18.312H64.0761Z" fill="white"/>
<path d="M73.962 18.0835L74.8441 17.8553V11.3611L73.962 11.1329V10.9048H78.0989V11.1329L77.2168 11.3611V13.8706H77.962C80.5171 13.8706 81.7947 14.6158 81.7947 16.0911C81.7947 17.5664 80.5171 18.3116 77.962 18.3116H73.9772V18.0835H73.962ZM77.9468 17.9466C78.3726 17.9466 78.7225 17.7945 78.9658 17.4751C79.2244 17.1709 79.346 16.6994 79.346 16.0911C79.346 15.4827 79.2244 15.0265 78.9658 14.7071C78.7072 14.4029 78.3726 14.2356 77.9468 14.2356H77.2015V17.9314H77.9468V17.9466ZM82.0837 18.3116V18.0835L82.9658 17.8553V11.3611L82.0837 11.1329V10.9048H86.2206V11.1329L85.3384 11.3611V17.8553L86.2206 18.0835V18.3116H82.0837Z" fill="white"/>
<path d="M88.441 17.4908C87.7414 16.7911 87.3916 15.833 87.3916 14.6163C87.3916 13.8254 87.5437 13.1258 87.8479 12.5326C88.1521 11.9395 88.5779 11.4832 89.1255 11.179C89.673 10.8596 90.2966 10.7075 91.0114 10.7075C91.7262 10.7075 92.3346 10.8444 92.8821 11.1029C93.4144 11.3615 93.8251 11.7265 94.114 12.1676C94.403 12.6086 94.5551 13.1105 94.5551 13.6581C94.5551 13.9014 94.5247 14.1143 94.4791 14.2968L94.403 14.5402C93.9772 14.6315 93.5209 14.7075 93.0342 14.7683C92 14.9204 90.9658 14.9965 89.9011 14.9965C89.9011 16.1372 90.0532 16.9585 90.3726 17.4452C90.692 17.9319 91.1179 18.1752 91.6654 18.1752C92.0456 18.1752 92.4106 18.084 92.73 17.9014C93.0646 17.7189 93.3232 17.4756 93.5057 17.1714C93.7034 16.8672 93.7947 16.563 93.7947 16.2436H94.1597C94.1597 16.6391 94.038 17.0041 93.8099 17.3691C93.5665 17.7189 93.2471 18.0079 92.8213 18.2208C92.3954 18.4337 91.9087 18.5402 91.3612 18.5402C90.1141 18.525 89.1407 18.1904 88.441 17.4908ZM91.4372 14.5402C91.6045 14.525 91.7871 14.5098 91.9696 14.4642C91.9848 14.4185 92 14.3121 92.0456 14.1448C92.0912 13.9014 92.1217 13.6429 92.1217 13.3691C92.1217 12.5478 92.0152 11.9547 91.8023 11.5744C91.5893 11.1942 91.3308 11.0117 91.0266 11.0117C90.2814 11.0117 89.9163 12.2132 89.9163 14.6315C90.5247 14.6163 91.0418 14.601 91.4372 14.5402Z" fill="white"/>
<path d="M98.0076 18.4789C97.7642 18.2356 97.6426 17.9162 97.6426 17.5055C97.6426 17.1862 97.749 16.8972 97.9772 16.669C98.2053 16.4409 98.4638 16.3192 98.7528 16.3192C98.8289 16.3192 98.9049 16.3192 98.9962 16.3345C99.0722 16.3497 99.133 16.3496 99.1635 16.3496L99.3612 16.3801V18.3725C99.6045 18.266 99.8023 18.0531 99.9848 17.7185C100.167 17.3991 100.274 16.8516 100.319 16.0759L100.608 11.7261L99.5741 11.4371V11.209H106.433V11.4371L105.551 11.6653V18.1595L106.433 18.3877V18.6158H102.297V18.3877L103.179 18.1595V11.5892H101.034L100.745 16.0911C100.684 17.0188 100.502 17.7185 100.182 18.1595C99.8631 18.6006 99.4829 18.8287 99.0418 18.8287C98.6007 18.8287 98.2509 18.7223 98.0076 18.4789Z" fill="white"/>
<path d="M113.034 17.8249C112.35 17.1557 112 16.2432 111.954 15.0721H110.844V18.1747L111.726 18.4028V18.631H107.589V18.4028L108.472 18.1747V11.6804L107.589 11.4523V11.2241H111.726V11.4523L110.844 11.6804V14.7071H111.954C111.97 13.9466 112.137 13.2926 112.456 12.7299C112.776 12.1671 113.217 11.7413 113.764 11.4523C114.327 11.1633 114.966 11.0112 115.711 11.0112C116.471 11.0112 117.125 11.1633 117.703 11.4827C118.266 11.8021 118.707 12.2432 119.011 12.8363C119.316 13.4295 119.483 14.1139 119.483 14.92C119.483 15.7261 119.331 16.4257 119.011 17.0036C118.707 17.5968 118.266 18.0379 117.703 18.3572C117.141 18.6766 116.471 18.8287 115.711 18.8287C114.601 18.8287 113.703 18.4941 113.034 17.8249ZM116.608 17.7337C116.852 17.2013 116.973 16.2584 116.973 14.92C116.973 13.5816 116.852 12.6386 116.608 12.1063C116.365 11.574 116.076 11.3002 115.711 11.3002C115.361 11.3002 115.057 11.574 114.814 12.1063C114.57 12.6386 114.449 13.5816 114.449 14.92C114.449 16.2584 114.57 17.2013 114.814 17.7337C115.057 18.266 115.346 18.5397 115.711 18.5397C116.061 18.5397 116.365 18.266 116.608 17.7337Z" fill="white"/>
<path d="M119.483 18.2511H120.669C120.821 18.1447 121.004 17.9774 121.186 17.734C121.536 17.3082 121.734 16.7607 121.779 16.1067L122.068 11.7568L121.034 11.4679V11.2397H128.046V11.4679L127.163 11.696V18.2664H128.487V21.0648H128.046C127.787 20.8975 127.574 20.6998 127.407 20.4565C126.996 19.9241 126.783 19.3158 126.783 18.6314H121.171C121.171 19.3158 120.958 19.9241 120.532 20.4565C120.365 20.6998 120.152 20.8975 119.909 21.0648H119.468V18.2511H119.483ZM124.791 18.2511V11.6048H122.509L122.22 16.1067C122.175 16.7302 121.977 17.2626 121.658 17.734C121.506 17.947 121.354 18.1142 121.186 18.2511H124.791Z" fill="white"/>
<path d="M129.293 18.6162V18.388L130.175 18.1751V11.6808L129.293 11.4527V11.2397H133.43V11.4527L132.532 11.6808V16.5477L134.905 12.4869V11.6808L134.008 11.4527V11.2397H138.144V11.4527L137.262 11.6808V18.1751L138.144 18.388V18.6162H134.008V18.388L134.905 18.1751V13.3082L132.532 17.3538V18.1751L133.43 18.388V18.6162H129.293Z" fill="white"/>
</svg>
