<svg width="27" height="31" viewBox="0 0 27 31" fill="none" xmlns="http://www.w3.org/2000/svg">
<path d="M24.3228 8.18652C24.2944 8.36794 24.262 8.55341 24.2255 8.74395C22.9718 15.1807 18.6827 17.4043 13.2047 17.4043H10.4156C9.74567 17.4043 9.18115 17.8907 9.07676 18.5515L7.64875 27.6081L7.24436 30.1753C7.21176 30.3814 7.271 30.5914 7.40648 30.7501C7.54196 30.9088 7.7401 31.0002 7.94874 31.0003H12.8956C13.4814 31.0003 13.979 30.5746 14.0713 29.9969L14.1199 29.7456L15.0513 23.8349L15.1111 23.5106C15.2023 22.9308 15.701 22.5052 16.2868 22.5052H17.0266C21.8194 22.5052 25.5714 20.5593 26.668 14.9283C27.1261 12.576 26.8889 10.6118 25.6768 9.23042C25.2926 8.8031 24.8338 8.44935 24.3228 8.18652V8.18652Z" fill="#A0D7E7"/>
<path d="M23.0113 7.66373C22.611 7.54793 22.2038 7.45755 21.7921 7.39313C20.9786 7.26811 20.1564 7.20812 19.3334 7.21374H11.8821C11.2962 7.21329 10.7975 7.64015 10.7075 8.21913L9.12239 18.2588L9.07678 18.5517C9.17882 17.8913 9.74737 17.4041 10.4156 17.4044H13.2047C18.6827 17.4044 22.9718 15.1798 24.2255 8.74412C24.263 8.55358 24.2944 8.36811 24.3228 8.1867C23.992 8.01321 23.6472 7.86777 23.2921 7.75191C23.199 7.72101 23.1054 7.69162 23.0113 7.66373Z" fill="#061D55"/>
<path d="M10.7075 8.21891C10.7967 7.63967 11.2961 7.21272 11.8821 7.21454H19.3333C20.2161 7.21454 21.0401 7.27231 21.7921 7.39393C22.301 7.47391 22.8028 7.59352 23.2931 7.75169C23.663 7.87432 24.0066 8.01925 24.3238 8.18648C24.6968 5.80781 24.3208 4.18824 23.0346 2.72172C21.6167 1.10722 19.0577 0.416016 15.7831 0.416016H6.27649C5.60758 0.416016 5.03699 0.902493 4.93361 1.56431L0.973886 26.6635C0.936561 26.8993 1.00428 27.1397 1.15923 27.3213C1.31418 27.503 1.54085 27.6078 1.77961 27.6081H7.64876L9.12239 18.2586L10.7075 8.21891Z" fill="#002685"/>
</svg>
