<svg width="28" height="22" viewBox="0 0 28 22" fill="none" xmlns="http://www.w3.org/2000/svg">
<path d="M27.125 3.11111C26.1592 3.53317 25.1213 3.81742 24.0319 3.94555C25.1442 3.28984 25.9984 2.25082 26.3998 1.01261C25.3597 1.61987 24.2069 2.06132 22.9797 2.29927C21.9986 1.26887 20.5975 0.625 19.0487 0.625C15.5717 0.625 13.0167 3.8185 13.802 7.13366C9.3275 6.91294 5.35937 4.8026 2.70266 1.59511C1.29172 3.97785 1.97094 7.0949 4.36844 8.67335C3.48687 8.64535 2.65562 8.4074 1.93047 8.0101C1.87141 10.4661 3.65969 12.7637 6.24969 13.2752C5.49172 13.4776 4.66156 13.525 3.81719 13.3656C4.50187 15.4716 6.49031 17.0038 8.84844 17.0469C6.58437 18.7943 3.73187 19.575 0.875 19.2433C3.25828 20.7475 6.09 21.625 9.13062 21.625C19.1297 21.625 24.7789 13.3118 24.4377 5.85562C25.4898 5.10731 26.4031 4.17381 27.125 3.11111Z" fill="#1B95E0"/>
</svg>
